#!OML:ASF H:\Terrain\Patient Classification 1\Terrain2\Thursday\justin.ASF
:FULLY-SPECIFIED
:DEGREES
1514
root 8.78074 17.6779 -1.11934 -221.898 -79.2172 -148.022
lowerback 15.3563 2.65329 7.73571
upperback 6.47241 4.22657 3.23407
thorax -1.36133 1.99965 -1.61064
lowerneck -11.8551 0.252517 -8.47643
upperneck 40.2323 -0.650931 3.71037
head 16.4791 -1.69021 2.88169
rclavicle -2.46493e-014 1.11319e-014
rhumerus -29.815 -2.60106 -82.7142
rradius 31.3112
rwrist -9.03151
rhand -19.8218 13.3135
rfingers 7.12502
rthumb 6.51182 -16.5664
lclavicle -2.46493e-014 1.11319e-014
lhumerus -36.2211 6.26177 83.368
lradius 30.7613
lwrist 0.592574
lhand -14.2488 20.6445
lfingers 7.12502
lthumb 11.8892 50.287
rfemur 25.5872 2.2796 32.5453
rtibia 3.65764e-014
rfoot -8.54858 0.20947
rtoes 19.5963
lfemur -86.7688 16.9717 -13.5854
ltibia 103.219
lfoot 4.87053 -14.7154
ltoes 5.48475
1515
root 8.73128 17.6658 -1.11713 -222.938 -78.9511 -146.886
lowerback 15.2755 2.56409 7.92514
upperback 6.47903 4.12379 3.43057
thorax -1.31808 1.94658 -1.48949
lowerneck -11.7175 0.702264 -8.53601
upperneck 39.9867 0.0506327 3.77994
head 16.2442 -1.38264 3.03135
rclavicle -3.17062e-014 2.22639e-014
rhumerus -29.625 -2.22901 -82.6698
rradius 31.2237
rwrist -8.91955
rhand -19.8391 13.1273
rfingers 7.12502
rthumb 6.49515 -16.7531
lclavicle -3.17062e-014 2.22639e-014
lhumerus -36.308 6.56053 83.5564
lradius 30.9528
lwrist 0.771934
lhand -14.7521 20.8244
lfingers 7.12502
lthumb 11.4039 50.4943
rfemur 25.6822 2.33058 32.8789
rtibia 3.02153e-014
rfoot -8.546 0.317594
rtoes 19.7996
lfemur -86.4207 16.8741 -13.0865
ltibia 102.083
lfoot 6.22758 -14.5639
ltoes 7.4235
1516
root 8.6805 17.6633 -1.11811 -222.854 -78.9471 -146.932
lowerback 15.2405 2.5494 7.84149
upperback 6.50672 4.08589 3.48635
thorax -1.28426 1.92608 -1.37687
lowerneck -11.7869 0.288741 -8.63957
upperneck 39.8238 -0.394852 3.42896
head 16.2252 -1.62119 2.81861
rclavicle -5.79457e-014 -2.8625e-014
rhumerus -29.4828 -2.29542 -82.5838
rradius 31.2852
rwrist -8.74122
rhand -19.3869 13.2049
rfingers 7.12502
rthumb 6.93167 -16.6616
lclavicle -5.79457e-014 -2.8625e-014
lhumerus -36.3354 6.49176 83.7368
lradius 31.1586
lwrist 0.807866
lhand -15.0375 21.3897
lfingers 7.12502
lthumb 11.1286 51.0746
rfemur 25.8288 2.32044 32.9034
rtibia 3.18055e-015
rfoot -8.55549 0.244454
rtoes 16.5427
lfemur -85.9783 16.6492 -12.9091
ltibia 101.072
lfoot 6.8182 -14.6571
ltoes 5.5646
1517
root 8.63295 17.6529 -1.1145 -223.264 -78.9553 -146.406
lowerback 15.2342 2.52761 7.9025
upperback 6.44923 4.07317 3.4552
thorax -1.33585 1.9202 -1.4429
lowerneck -11.9195 0.148879 -8.39144
upperneck 39.9331 -0.588836 3.19766
head 16.3343 -1.70145 2.64224
rclavicle 2.68359e-014 -2.38542e-015
rhumerus -29.4827 -2.57339 -82.5848
rradius 31.4362
rwrist -8.56133
rhand -19.374 13.0243
rfingers 7.12502
rthumb 6.94411 -16.8418
lclavicle 2.68359e-014 -2.38542e-015
lhumerus -36.365 6.10122 83.788
lradius 31.2772
lwrist 0.785701
lhand -14.5364 21.1035
lfingers 7.12502
lthumb 11.6119 50.7618
rfemur 25.8456 2.24325 32.9982
rtibia -4.45278e-014
rfoot -8.44975 0.106982
rtoes 12.9908
lfemur -85.8314 16.4002 -12.8285
ltibia 100.231
lfoot 7.43092 -14.7953
ltoes 2.15747
1518
root 8.58522 17.6282 -1.10767 -224.851 -78.7611 -144.68
lowerback 15.1894 2.47721 8.23928
upperback 6.42679 4.0483 3.57397
thorax -1.31797 1.90932 -1.49822
lowerneck -12.0892 0.168687 -8.46886
upperneck 40.0901 -0.599424 3.37473
head 16.4609 -1.70089 2.73776
rclavicle -2.0276e-014 -3.57812e-014
rhumerus -29.384 -2.64826 -82.5104
rradius 31.4846
rwrist -8.56507
rhand -19.6751 12.8456
rfingers 7.12502
rthumb 6.65349 -17.0299
lclavicle -2.0276e-014 -3.57812e-014
lhumerus -36.4149 5.43104 84.143
lradius 31.6097
lwrist 1.41194
lhand -14.8239 21.2216
lfingers 7.12502
lthumb 11.3346 50.8953
rfemur 25.87 2.15058 33.397
rtibia -3.81667e-014
rfoot -8.26664 0.0929569
rtoes 12.3638
lfemur -85.7886 16.2837 -12.5187
ltibia 99.4891
lfoot 8.55081 -14.4936
ltoes 1.98709
1519
root 8.53362 17.6093 -1.10347 -224.677 -78.8898 -144.807
lowerback 15.1237 2.45631 7.96405
upperback 6.4786 3.97131 3.67089
thorax -1.2642 1.86672 -1.22955
lowerneck -12.2412 0.212877 -8.77088
upperneck 40.0611 -0.520703 3.64955
head 16.4767 -1.67181 2.92965
rclavicle -4.6118e-014 1.59028e-015
rhumerus -29.2422 -2.28422 -82.4056
rradius 31.5762
rwrist -8.90464
rhand -20.1432 13.3936
rfingers 7.12502
rthumb 6.20158 -16.4956
lclavicle -4.6118e-014 1.59028e-015
lhumerus -36.482 4.96642 84.6579
lradius 31.9474
lwrist 1.9406
lhand -15.6309 21.828
lfingers 7.12502
lthumb 10.5562 51.5429
rfemur 26.0492 2.08133 33.2651
rtibia 6.99722e-014
rfoot -8.30054 0.124093
rtoes 13.2181
lfemur -85.476 16.1067 -12.664
ltibia 98.78
lfoot 9.26155 -13.8851
ltoes 1.23069
1520
root 8.48362 17.6049 -1.10296 -222.394 -79.2647 -147.031
lowerback 15.0649 2.49893 7.20368
upperback 6.47974 3.92671 3.59104
thorax -1.29234 1.83716 -0.885962
lowerneck -12.244 0.212302 -8.73436
upperneck 39.9462 -0.501354 3.6037
head 16.4139 -1.65703 2.90339
rclavicle -6.75868e-015 9.54166e-015
rhumerus -29.2152 -2.02352 -82.3896
rradius 31.7189
rwrist -9.16239
rhand -21.32 14.2653
rfingers 7.12502
rthumb 5.06536 -15.6542
lclavicle -6.75868e-015 9.54166e-015
lhumerus -36.5991 4.59761 84.9786
lradius 32.1131
lwrist 2.09725
lhand -15.909 22.008
lfingers 7.12502
lthumb 10.288 51.7364
rfemur 26.2492 2.14959 32.5774
rtibia -3.49861e-014
rfoot -8.45127 0.290884
rtoes 15.6222
lfemur -85.0235 15.9339 -13.2741
ltibia 98.0789
lfoot 9.63589 -13.4125
ltoes 1.63339
1521
root 8.4395 17.6022 -1.10141 -221.251 -79.4371 -147.99
lowerback 14.9951 2.51635 6.87887
upperback 6.43172 3.91029 3.51901
thorax -1.32878 1.82711 -0.778361
lowerneck -12.2177 0.167721 -8.72432
upperneck 39.8624 -0.563802 3.59103
head 16.3684 -1.67831 2.88355
rclavicle -5.32743e-014 -5.56597e-014
rhumerus -29.1375 -2.00984 -82.3788
rradius 31.7369
rwrist -9.17231
rhand -21.9587 14.6709
rfingers 7.12502
rthumb 4.44868 -15.2624
lclavicle -5.32743e-014 -5.56597e-014
lhumerus -36.641 4.56295 85.0123
lradius 32.295
lwrist 2.0262
lhand -15.7915 22.0687
lfingers 7.12502
lthumb 10.4013 51.7914
rfemur 26.2373 2.20319 32.2221
rtibia 1.27222e-014
rfoot -8.38617 0.530281
rtoes 17.6108
lfemur -84.7543 15.8246 -13.569
ltibia 97.4671
lfoot 10.017 -12.7936
ltoes 3.66169
1522
root 8.39052 17.5773 -1.09669 -223.368 -79.2984 -145.788
lowerback 15.0783 2.41677 7.16444
upperback 6.41829 3.82266 3.67752
thorax -1.38076 1.78001 -0.761373
lowerneck -12.2374 0.1663 -8.63048
upperneck 39.7364 -0.492529 3.38383
head 16.3011 -1.65351 2.78406
rclavicle 4.06515e-014 4.45278e-014
rhumerus -29.0284 -1.72941 -82.3709
rradius 31.7574
rwrist -9.3599
rhand -21.7541 14.4719
rfingers 7.12502
rthumb 4.6462 -15.4572
lclavicle 4.06515e-014 4.45278e-014
lhumerus -36.6345 4.92161 85.0277
lradius 32.4721
lwrist 1.80552
lhand -15.3891 21.8317
lfingers 7.12502
lthumb 10.7895 51.5346
rfemur 26.2559 2.01627 32.6509
rtibia -9.54166e-015
rfoot -8.25153 0.527689
rtoes 16.2712
lfemur -84.6305 15.7313 -13.1898
ltibia 97.0933
lfoot 10.044 -12.3752
ltoes 3.26126
1523
root 8.33652 17.5439 -1.08749 -226.592 -78.9786 -142.499
lowerback 15.1512 2.28906 7.79157
upperback 6.43454 3.73595 3.89283
thorax -1.37249 1.7369 -0.870881
lowerneck -12.3256 0.141275 -8.4667
upperneck 39.6264 -0.457869 3.14832
head 16.2626 -1.6367 2.65504
rclavicle -3.81667e-014 0
rhumerus -28.9214 -1.64861 -82.3081
rradius 31.8298
rwrist -9.47165
rhand -21.5306 14.0469
rfingers 7.12502
rthumb 4.862 -15.8774
lclavicle -3.81667e-014 0
lhumerus -36.621 5.02484 85.1617
lradius 32.6181
lwrist 1.55696
lhand -15.2808 21.6457
lfingers 7.12502
lthumb 10.8939 51.3431
rfemur 24.71 1.77021 33.372
rtibia 3.28126
rfoot -9.65841 0.279156
rtoes 12.995
lfemur -84.5657 15.5739 -12.4819
ltibia 96.8656
lfoot 9.97057 -12.206
ltoes 2.63391
1524
root 8.28582 17.5284 -1.07873 -228.11 -78.945 -140.853
lowerback 15.1162 2.19511 8.11386
upperback 6.45981 3.6456 3.90403
thorax -1.30847 1.69749 -1.02056
lowerneck -12.3986 0.106039 -8.4093
upperneck 39.51 -0.519759 3.19364
head 16.2234 -1.6377 2.65385
rclavicle -8.84592e-015 -1.66979e-014
rhumerus -28.7791 -1.87901 -82.2939
rradius 31.9013
rwrist -9.44162
rhand -21.0869 13.5281
rfingers 7.12502
rthumb 5.29049 -16.3859
lclavicle -8.84592e-015 -1.66979e-014
lhumerus -36.5514 4.73687 85.2481
lradius 32.7475
lwrist 1.43533
lhand -15.6355 21.8462
lfingers 7.12502
lthumb 10.5518 51.5613
rfemur 23.2129 1.58561 33.5612
rtibia 6.47766
rfoot -10.9791 0.226948
rtoes 12.7768
lfemur -84.3671 15.2548 -12.151
ltibia 96.5833
lfoot 10.2445 -11.6201
ltoes 2.92493
1525
root 8.23464 17.5183 -1.07296 -227.499 -79.2906 -141.452
lowerback 15.176 2.15482 7.70488
upperback 6.51523 3.53869 3.80866
thorax -1.3141 1.64117 -0.880834
lowerneck -12.4052 0.149684 -8.18458
upperneck 39.3071 -0.450829 3.08605
head 16.1104 -1.57594 2.57467
rclavicle 1.97791e-014 -3.18055e-015
rhumerus -28.6584 -1.86815 -82.3843
rradius 32.0217
rwrist -9.64437
rhand -20.7538 12.9558
rfingers 7.12502
rthumb 5.61209 -16.9499
lclavicle 1.97791e-014 -3.18055e-015
lhumerus -36.4661 4.39908 85.3734
lradius 32.8898
lwrist 1.66039
lhand -15.6888 21.8786
lfingers 7.12502
lthumb 10.5004 51.5963
rfemur 22.2262 1.48126 33.0632
rtibia 8.97618
rfoot -12.0804 0.776043
rtoes 16.3948
lfemur -83.974 14.9954 -12.5022
ltibia 96.2788
lfoot 10.4209 -11.2907
ltoes 2.25825
1526
root 8.18464 17.5057 -1.0698 -225.654 -79.7259 -143.196
lowerback 15.2149 2.21641 7.06044
upperback 6.51648 3.54227 3.6731
thorax -1.37344 1.63727 -0.669955
lowerneck -12.4812 0.127537 -8.19248
upperneck 39.2693 -0.513376 3.21053
head 16.1134 -1.58146 2.62119
rclavicle 3.30976e-014 1.59028e-015
rhumerus -28.6152 -2.0697 -82.3425
rradius 32.1572
rwrist -9.65703
rhand -21.02 12.9697
rfingers 7.12502
rthumb 5.35508 -16.9426
lclavicle 3.30976e-014 1.59028e-015
lhumerus -36.3825 4.09551 85.5885
lradius 33.0188
lwrist 1.97247
lhand -15.8191 22.0172
lfingers 7.12502
lthumb 10.3746 51.7413
rfemur 21.0337 1.44847 32.4424
rtibia 11.4167
rfoot -13.1636 0.991787
rtoes 17.0695
lfemur -83.684 14.8359 -13.1756
ltibia 95.9272
lfoot 10.4489 -11.7406
ltoes 0.202367
1527
root 8.13672 17.4942 -1.07182 -225.237 -79.9184 -143.467
lowerback 15.2875 2.25649 6.77274
upperback 6.48923 3.56837 3.64241
thorax -1.45913 1.64515 -0.551166
lowerneck -12.5972 0.014636 -8.45527
upperneck 39.299 -0.707492 3.50278
head 16.1756 -1.66088 2.7672
rclavicle 8.24956e-015 -7.15625e-015
rhumerus -28.5692 -2.42207 -82.2082
rradius 32.206
rwrist -9.39772
rhand -20.7303 13.2223
rfingers 7.12502
rthumb 5.63474 -16.6828
lclavicle 8.24956e-015 -7.15625e-015
lhumerus -36.3407 3.50181 85.9083
lradius 33.1314
lwrist 2.33706
lhand -16.1926 22.0966
lfingers 7.12502
lthumb 10.0143 51.8383
rfemur 19.8228 1.34259 32.3217
rtibia 13.6203
rfoot -14.0377 0.497194
rtoes 15.7186
lfemur -83.3976 14.7126 -13.4091
ltibia 95.4955
lfoot 10.7028 -12.1619
ltoes -1.82329
